<?xml version="1.0"?>
<svg width="137" height="22" xmlns="http://www.w3.org/2000/svg" xmlns:svg="http://www.w3.org/2000/svg">

 <g class="layer">
  <title>Layer 1</title>
  <path clip-rule="evenodd" d="m16.17,19.99c3.73,-2.15 5.62,-6.25 5.14,-10.27l-3.7,2.13c-0.26,1.99 -1.42,3.84 -3.29,4.93c-3.21,1.85 -7.31,0.75 -9.16,-2.46c-1.85,-3.21 -0.76,-7.31 2.45,-9.16c2.53,-1.46 5.61,-1.09 7.71,0.71l-5.7,3.29l-0.92,4.86l11.95,-6.89c-0.18,-0.47 -0.4,-0.93 -0.66,-1.37c-2.88,-4.98 -9.25,-6.69 -14.23,-3.81c-4.99,2.87 -6.69,9.24 -3.82,14.23c2.88,4.98 9.25,6.69 14.23,3.81z" fill="#253D4E" fill-rule="evenodd" id="svg_1"/>
  <path d="m45.71,13.98l-0.8,1.65l-0.01,0.01c-1.05,1.89 -2.41,3.34 -4.09,4.29c-1.67,0.96 -3.62,1.42 -5.81,1.4l0,0c-2.95,-0.04 -5.49,-1.05 -7.62,-3.01c-2.14,-1.99 -3.22,-4.44 -3.25,-7.28c-0.04,-2.89 1.01,-5.34 3.15,-7.39l0,0l0,0c2.16,-2.03 4.73,-3.11 7.72,-3.15c2.14,-0.03 4.14,0.53 5.98,1.63l0,0l0.01,0c1.72,1.06 3.03,2.39 3.8,4.07l0,0.01l0.85,1.86l-4.48,0l-0.23,-0.37c-1.28,-2.12 -3.19,-3.21 -5.84,-3.27c-1.73,-0.03 -3.26,0.56 -4.69,1.86l0,0l0,0.01c-1.47,1.31 -2.17,2.85 -2.17,4.63c0,1.79 0.67,3.31 2.02,4.62c1.35,1.28 2.94,1.91 4.78,1.88l0,0l0,0c2.71,-0.03 4.64,-1.07 5.95,-3.1l0.22,-0.35l4.51,0z" fill="#253D4E" id="svg_3"/>
  <path clip-rule="evenodd" d="m57.46,0.57c2.82,0.1 5.26,1.15 7.23,3.2c1.95,2.01 2.96,4.42 2.96,7.19c0,2.86 -1.08,5.34 -3.21,7.41c-2.1,2.04 -4.66,3.06 -7.6,2.96c-2.82,-0.07 -5.26,-1.12 -7.23,-3.14c-1.96,-2.01 -2.93,-4.42 -2.93,-7.19c0,-2.88 1.08,-5.39 3.18,-7.44c2.1,-2.08 4.66,-3.1 7.6,-2.99zm-0.53,16.83l0.01,0c1.86,0.09 3.39,-0.51 4.69,-1.86l0.01,0l0,0c1.35,-1.38 1.97,-2.92 1.94,-4.75c-0.06,-1.74 -0.71,-3.21 -1.94,-4.46c-1.22,-1.24 -2.64,-1.83 -4.34,-1.83l-0.01,0l-0.01,0c-1.79,-0.03 -3.28,0.59 -4.57,1.84c-1.28,1.24 -1.89,2.7 -1.92,4.47c-0.03,1.75 0.53,3.27 1.75,4.58c1.22,1.3 2.65,1.95 4.39,2.01l0,0z" fill="#253D4E" fill-rule="evenodd" id="svg_4"/>
  <path d="m99.02,20.91l-4.17,0l0,-12.04c0,-1.26 -0.38,-2.32 -1.09,-3.17c-0.67,-0.82 -1.57,-1.24 -2.7,-1.24c-1.2,0 -2.21,0.38 -3.1,1.14c-0.82,0.72 -1.23,1.61 -1.23,2.72l0,12.59l-4.2,0l0,-12.59c0,-1.11 -0.41,-2 -1.26,-2.72l0,0l-0.01,-0.01c-0.85,-0.74 -1.86,-1.13 -3.06,-1.13c-1.12,0 -1.99,0.42 -2.67,1.24c-0.7,0.84 -1.06,1.86 -1.06,3.17l0,12.04l-4.17,0l0,-11.75c0,-2.44 0.71,-4.51 2.24,-6.07c1.4,-1.47 3.25,-2.28 5.47,-2.46c1.51,-0.12 2.89,0.13 4.13,0.78c0.94,0.49 1.77,1.2 2.49,2.09c0.72,-0.89 1.55,-1.6 2.49,-2.09c1.24,-0.65 2.62,-0.9 4.13,-0.78c2.23,0.18 4.07,0.99 5.5,2.46c1.52,1.55 2.27,3.62 2.27,6.07l0,11.75z" fill="#253D4E" id="svg_5"/>
  <path clip-rule="evenodd" d="m16.17,19.99c3.73,-2.15 5.62,-6.25 5.14,-10.27l-3.7,2.13c-0.26,1.99 -1.42,3.84 -3.29,4.93c-3.21,1.85 -7.31,0.75 -9.16,-2.46c-1.85,-3.21 -0.76,-7.31 2.45,-9.16c2.53,-1.46 5.61,-1.09 7.71,0.71l-5.7,3.29l-0.92,4.86l11.95,-6.89c-0.18,-0.47 -0.4,-0.93 -0.66,-1.37c-2.88,-4.98 -9.25,-6.69 -14.23,-3.81c-4.99,2.87 -6.69,9.24 -3.82,14.23c2.88,4.98 9.25,6.69 14.23,3.81z" fill-rule="evenodd" id="svg_7" stroke="#253D4E"/>
  <path d="m45.71,13.98l-0.8,1.65l-0.01,0.01c-1.05,1.89 -2.41,3.34 -4.09,4.29c-1.67,0.96 -3.62,1.42 -5.81,1.4l0,0c-2.95,-0.04 -5.49,-1.05 -7.62,-3.01c-2.14,-1.99 -3.22,-4.44 -3.25,-7.28c-0.04,-2.89 1.01,-5.34 3.15,-7.39l0,0l0,0c2.16,-2.03 4.73,-3.11 7.72,-3.15c2.14,-0.03 4.14,0.53 5.98,1.63l0,0l0.01,0c1.72,1.06 3.03,2.39 3.8,4.07l0,0.01l0.85,1.86l-4.48,0l-0.23,-0.37c-1.28,-2.12 -3.19,-3.21 -5.84,-3.27c-1.73,-0.03 -3.26,0.56 -4.69,1.86l0,0l0,0.01c-1.47,1.31 -2.17,2.85 -2.17,4.63c0,1.79 0.67,3.31 2.02,4.62c1.35,1.28 2.94,1.91 4.78,1.88l0,0l0,0c2.71,-0.03 4.64,-1.07 5.95,-3.1l0.22,-0.35l4.51,0z" id="svg_9" stroke="#253D4E"/>
  <path clip-rule="evenodd" d="m57.46,0.57c2.82,0.1 5.26,1.15 7.23,3.2c1.95,2.01 2.96,4.42 2.96,7.19c0,2.86 -1.08,5.34 -3.21,7.41c-2.1,2.04 -4.66,3.06 -7.6,2.96c-2.82,-0.07 -5.26,-1.12 -7.23,-3.14c-1.96,-2.01 -2.93,-4.42 -2.93,-7.19c0,-2.88 1.08,-5.39 3.18,-7.44c2.1,-2.08 4.66,-3.1 7.6,-2.99zm-0.53,16.83l0.01,0c1.86,0.09 3.39,-0.51 4.69,-1.86l0.01,0l0,0c1.35,-1.38 1.97,-2.92 1.94,-4.75c-0.06,-1.74 -0.71,-3.21 -1.94,-4.46c-1.22,-1.24 -2.64,-1.83 -4.34,-1.83l-0.01,0l-0.01,0c-1.79,-0.03 -3.28,0.59 -4.57,1.84c-1.28,1.24 -1.89,2.7 -1.92,4.47c-0.03,1.75 0.53,3.27 1.75,4.58c1.22,1.3 2.65,1.95 4.39,2.01l0,0z" fill-rule="evenodd" id="svg_10" stroke="#253D4E"/>
  <path d="m99.02,20.91l-4.17,0l0,-12.04c0,-1.26 -0.38,-2.32 -1.09,-3.17c-0.67,-0.82 -1.57,-1.24 -2.7,-1.24c-1.2,0 -2.21,0.38 -3.1,1.14c-0.82,0.72 -1.23,1.61 -1.23,2.72l0,12.59l-4.2,0l0,-12.59c0,-1.11 -0.41,-2 -1.26,-2.72l0,0l-0.01,-0.01c-0.85,-0.74 -1.86,-1.13 -3.06,-1.13c-1.12,0 -1.99,0.42 -2.67,1.24c-0.7,0.84 -1.06,1.86 -1.06,3.17l0,12.04l-4.17,0l0,-11.75c0,-2.44 0.71,-4.51 2.24,-6.07c1.4,-1.47 3.25,-2.28 5.47,-2.46c1.51,-0.12 2.89,0.13 4.13,0.78c0.94,0.49 1.77,1.2 2.49,2.09c0.72,-0.89 1.55,-1.6 2.49,-2.09c1.24,-0.65 2.62,-0.9 4.13,-0.78c2.23,0.18 4.07,0.99 5.5,2.46c1.52,1.55 2.27,3.62 2.27,6.07l0,11.75z" id="svg_11" stroke="#253D4E"/>
 </g>
</svg>