<?xml version="1.0" encoding="UTF-8" standalone="no"?>
<svg
   width="99.183205"
   height="21.389074"
   viewBox="0 0 99.1832 21.389075"
   fill="#ffffff"
   version="1.1"
   id="svg16"
   sodipodi:docname="logo-white.svg"
   inkscape:version="1.2.2 (b0a8486541, 2022-12-01)"
   xmlns:inkscape="http://www.inkscape.org/namespaces/inkscape"
   xmlns:sodipodi="http://sodipodi.sourceforge.net/DTD/sodipodi-0.dtd"
   xmlns="http://www.w3.org/2000/svg"
   xmlns:svg="http://www.w3.org/2000/svg">
  <defs
     id="defs20" />
  <sodipodi:namedview
     id="namedview18"
     pagecolor="#ffffff"
     bordercolor="#000000"
     borderopacity="0.25"
     inkscape:showpageshadow="2"
     inkscape:pageopacity="0.0"
     inkscape:pagecheckerboard="0"
     inkscape:deskcolor="#d1d1d1"
     showgrid="false"
     inkscape:zoom="11.264706"
     inkscape:cx="49.357702"
     inkscape:cy="9.0104439"
     inkscape:window-width="1920"
     inkscape:window-height="1043"
     inkscape:window-x="0"
     inkscape:window-y="0"
     inkscape:window-maximized="1"
     inkscape:current-layer="svg16" />
  <g
     id="g14"
     transform="translate(0.61482697,0.14425437)">
    <path
       fill-rule="evenodd"
       clip-rule="evenodd"
       d="m 15.6294,19.4909 c 3.7252,-2.1508 5.6197,-6.2546 5.1368,-10.27133 l -3.6989,2.13563 c -0.267,1.9899 -1.421,3.8388 -3.2943,4.9204 C 10.5658,18.1273 6.4646,17.0284 4.61288,13.8211 2.76116,10.6138 3.86007,6.51271 7.06733,4.661 9.59584,3.20116 12.6799,3.57522 14.7794,5.37048 L 9.07289,8.66512 8.1594,13.5234 20.1057,6.62617 C 19.9208,6.16171 19.7001,5.70482 19.4428,5.25907 16.5658,0.276014 10.194,-1.43132 5.21096,1.44567 0.227882,4.32265 -1.47942,10.6944 1.39755,15.6775 c 2.87697,4.9831 9.24875,6.6904 14.23185,3.8134 z"
       id="path2" />
    <path
       d="m 45.1611,13.4806 -0.7952,1.6449 -0.0103,0.0185 c -1.05,1.891 -2.4096,3.3316 -4.0867,4.2909 -1.6768,0.9591 -3.6253,1.411 -5.8116,1.394 H 34.4542 C 31.5082,20.7943 28.9688,19.7845 26.8398,17.8156 24.6983,15.8352 23.6193,13.3828 23.5837,10.5372 23.548,7.65233 24.5944,5.19781 26.7308,3.15279 L 26.7331,3.1506 26.7354,3.14843 C 28.8907,1.11908 31.4624,0.0365812 34.4524,0.00149869 36.5945,-0.0329126 38.5937,0.525727 40.4356,1.62914 l 0.0041,0.00247 0.0041,0.00251 c 1.7222,1.06062 3.034,2.39091 3.8052,4.07102 l 9e-4,0.00197 0.8444,1.86831 H 40.6119 L 40.3867,7.20322 C 39.1026,5.08118 37.2001,3.99065 34.5475,3.93137 32.814,3.9033 31.2827,4.49431 29.8596,5.79128 L 29.8569,5.79375 29.8541,5.7962 c -1.4714,1.3154 -2.167,2.85812 -2.167,4.6351 0,1.7856 0.6702,3.3047 2.0221,4.622 1.3463,1.2801 2.9358,1.9067 4.7749,1.8779 l 0.0019,-10e-5 h 0.0019 c 2.703,-0.0295 4.6361,-1.072 5.9435,-3.0969 l 0.2284,-0.3536 z"
       id="path6" />
    <path
       fill-rule="evenodd"
       clip-rule="evenodd"
       d="m 56.9148,0.0664602 c 2.8154,0.1040808 5.2626,1.1533498 7.2277,3.2042698 1.9549,2.00793 2.9602,4.41744 2.9602,7.19277 0,2.8524 -1.0813,5.332 -3.2088,7.4031 -2.0991,2.0433 -4.6561,3.0656 -7.5957,2.962 -2.8209,-0.0706 -5.2677,-1.1224 -7.2309,-3.1376 -1.9612,-2.0134 -2.9294,-4.4256 -2.9294,-7.1952 0,-2.8776 1.0761,-5.3903 3.1733,-7.43296 2.101,-2.078857 4.6621,-3.1011367 7.6036,-2.9963798 z M 56.3869,16.8994 l 0.0053,3e-4 c 1.8614,0.0863 3.3958,-0.5052 4.6965,-1.8577 l 0.003,-0.0031 0.003,-0.003 c 1.3492,-1.3718 1.966,-2.9194 1.9378,-4.7472 C 62.9714,8.54637 62.3217,7.07942 61.0936,5.82558 59.8798,4.58637 58.4587,3.99601 56.7528,3.99601 h -0.0064 l -0.0063,-1e-4 c -1.7982,-0.0287 -3.2883,0.59209 -4.5729,1.84254 -1.2777,1.24378 -1.8959,2.69939 -1.9259,4.47625 -0.0299,1.7499 0.5324,3.2705 1.7521,4.5736 1.222,1.3056 2.6499,1.9536 4.3882,2.011 z"
       id="path8" />
    <path
       d="M 98.4761,20.4097 H 94.3063 V 8.36749 c 0,-1.26106 -0.3791,-2.31529 -1.0868,-3.16946 -0.676,-0.81606 -1.5772,-1.23427 -2.7082,-1.23427 -1.1971,0 -2.2081,0.38105 -3.0961,1.13225 -0.8241,0.72402 -1.229,1.61366 -1.229,2.72328 V 20.4097 H 81.9833 V 7.81929 c 0,-1.1097 -0.4044,-1.9961 -1.2573,-2.71926 L 80.7212,5.09599 80.7165,5.09187 c -0.8499,-0.74463 -1.857,-1.12811 -3.0582,-1.12811 -1.1243,0 -1.9949,0.41319 -2.6751,1.23427 -0.7012,0.84631 -1.0537,1.86493 -1.0537,3.16946 V 20.4097 H 69.7598 V 8.65771 c 0,-2.4335 0.7074,-4.50595 2.2313,-6.06407 1.4055,-1.47429 3.2494,-2.285995 5.4709,-2.460673 1.5087,-0.1236258 2.895,0.132499 4.1334,0.78093 0.9378,0.491033 1.7656,1.193703 2.4894,2.084673 0.7238,-0.89097 1.5515,-1.59364 2.4893,-2.084673 1.2384,-0.648431 2.6248,-0.9045558 4.1335,-0.78093 2.225,0.174952 4.0649,0.988193 5.5001,2.456723 1.5213,1.55309 2.2684,3.62329 2.2684,6.06802 z"
       id="path10" />
  </g>
</svg>
