<?xml version="1.0"?>
<svg width="136" height="21" xmlns="http://www.w3.org/2000/svg" xmlns:svg="http://www.w3.org/2000/svg" xmlns:xlink="http://www.w3.org/1999/xlink">

 <g class="layer">
  <title>Layer 1</title>
  <path clip-rule="evenodd" d="m15.63,19.49c3.72,-2.15 5.62,-6.25 5.14,-10.27l-3.7,2.14c-0.27,1.99 -1.42,3.83 -3.3,4.92c-3.2,1.85 -7.31,0.75 -9.16,-2.46c-1.85,-3.21 -0.75,-7.31 2.46,-9.16c2.53,-1.46 5.61,-1.08 7.71,0.71l-5.71,3.3l-0.91,4.85l11.95,-6.89c-0.19,-0.47 -0.41,-0.93 -0.67,-1.37c-2.87,-4.98 -9.25,-6.69 -14.23,-3.81c-4.98,2.87 -6.69,9.24 -3.81,14.23c2.87,4.98 9.25,6.69 14.23,3.81z" fill-rule="evenodd" id="svg_2"/>
  <path d="m45.16,13.48l-0.79,1.65l-0.01,0.01c-1.05,1.9 -2.41,3.34 -4.09,4.29c-1.68,0.96 -3.63,1.42 -5.81,1.4l-0.01,0c-2.94,-0.04 -5.48,-1.05 -7.61,-3.01c-2.14,-1.98 -3.22,-4.44 -3.26,-7.28c-0.03,-2.89 1.01,-5.34 3.15,-7.39l0,0l0.01,0c2.15,-2.03 4.72,-3.11 7.71,-3.15c2.14,-0.03 4.14,0.53 5.99,1.63l0,0l0,0c1.73,1.06 3.04,2.4 3.81,4.08l0,0l0.84,1.87l-4.48,0l-0.22,-0.38c-1.29,-2.12 -3.19,-3.21 -5.84,-3.27c-1.74,-0.03 -3.27,0.56 -4.69,1.86l0,0l-0.01,0.01c-1.47,1.31 -2.16,2.85 -2.16,4.63c0,1.79 0.67,3.31 2.02,4.62c1.35,1.28 2.94,1.91 4.77,1.88l0.01,0l0,0c2.7,-0.03 4.63,-1.07 5.94,-3.1l0.23,-0.35l4.5,0z" id="svg_4"/>
  <path clip-rule="evenodd" d="m56.91,0.07c2.82,0.1 5.27,1.15 7.23,3.2c1.96,2.01 2.96,4.42 2.96,7.19c0,2.86 -1.08,5.34 -3.21,7.41c-2.1,2.04 -4.65,3.06 -7.59,2.96c-2.82,-0.07 -5.27,-1.12 -7.23,-3.14c-1.96,-2.01 -2.93,-4.42 -2.93,-7.19c0,-2.88 1.07,-5.39 3.17,-7.44c2.1,-2.08 4.66,-3.1 7.6,-2.99zm-0.52,16.83l0,0c1.86,0.09 3.4,-0.51 4.7,-1.86l0,0l0,0c1.35,-1.38 1.97,-2.92 1.94,-4.75c-0.06,-1.74 -0.71,-3.21 -1.94,-4.46c-1.21,-1.24 -2.63,-1.83 -4.34,-1.83l0,0l-0.01,0c-1.8,-0.03 -3.29,0.59 -4.57,1.84c-1.28,1.24 -1.9,2.7 -1.93,4.47c-0.03,1.75 0.53,3.28 1.75,4.58c1.23,1.3 2.65,1.95 4.39,2.01l0.01,0z" fill-rule="evenodd" id="svg_5"/>
  <path d="m98.48,20.41l-4.17,0l0,-12.04c0,-1.26 -0.38,-2.32 -1.09,-3.17c-0.68,-0.82 -1.58,-1.24 -2.71,-1.24c-1.2,0 -2.21,0.38 -3.09,1.14c-0.83,0.72 -1.23,1.61 -1.23,2.72l0,12.59l-4.21,0l0,-12.59c0,-1.11 -0.4,-2 -1.25,-2.72l-0.01,0l0,-0.01c-0.85,-0.74 -1.86,-1.13 -3.06,-1.13c-1.13,0 -2,0.42 -2.68,1.24c-0.7,0.84 -1.05,1.86 -1.05,3.17l0,12.04l-4.17,0l0,-11.75c0,-2.44 0.71,-4.51 2.23,-6.07c1.41,-1.47 3.25,-2.28 5.47,-2.46c1.51,-0.12 2.9,0.14 4.14,0.78c0.93,0.49 1.76,1.2 2.48,2.09c0.73,-0.89 1.56,-1.6 2.49,-2.09c1.24,-0.64 2.63,-0.9 4.14,-0.78c2.22,0.18 4.06,0.99 5.5,2.46c1.52,1.55 2.27,3.62 2.27,6.07l0,11.75z" id="svg_6"/>
  <image height="0" id="svg_10" width="0" x="21.69" xlink:href="./images/logo.svg" y="36.24"/>
 </g>
</svg>